<?xml version="1.0" encoding="UTF-8"?>
<!DOCTYPE svg PUBLIC "-//W3C//DTD SVG 1.1//EN" "http://www.w3.org/Graphics/SVG/1.1/DTD/svg11.dtd">
<!-- Creator: CorelDRAW -->
<svg xmlns="http://www.w3.org/2000/svg" xml:space="preserve" width="185px" height="79px" version="1.1" style="shape-rendering:geometricPrecision; text-rendering:geometricPrecision; image-rendering:optimizeQuality; fill-rule:evenodd; clip-rule:evenodd"
viewBox="0 0 1845 748.57"
 xmlns:xlink="http://www.w3.org/1999/xlink"
 xmlns:xodm="http://www.corel.com/coreldraw/odm/2003">
 <defs>
  <style type="text/css">
   <![CDATA[
    .fil0 {fill:#1B2D67}
   ]]>
  </style>
 </defs>
 <g id="Camada_x0020_1">
  <metadata id="CorelCorpID_0Corel-Layer"/>
  <path class="fil0" d="M142.31 737c-5.92,0 -10,-3.63 -10,-9 0,-9.13 4,1.1 4,-19l11 0c0,19.71 4,10.78 4,18 0,5.05 -3.61,10 -9,10zm181.99 -69l6 0c0,-6.16 -2.76,-11.65 -4,-16.99 -2.03,2.92 -2.1,5.65 -2.99,9.01 -0.93,3.46 -3.98,7.98 0.99,7.98zm-107.99 -9c0,7.97 11.99,-0.99 11.99,-1l-0.99 -7.99 -11 -1 0 9.99zm963.91 -42.99c0,2.3 0.7,3 3,3l45.99 0 0 -8 -39.99 0 0 -63 -9 0 0 68zm-27 -284.98c8,0 16.01,-0.05 24.01,0.01 12.88,0.1 10.35,-1.07 18.39,-6.6 2.71,-1.87 4.29,-3.2 6.87,-5.13 2.58,-1.93 4.43,-3.03 7.02,-4.98l10.48 -7.52c2.92,-2.28 2.25,-1.07 3.22,-3.77l-52.99 0 -17 27.99zm151.99 288.98c7.72,0 5.64,-1.59 12.34,-16.66l23.65 -55.34 -9.99 0 -21.02 51.98c-1.19,2.76 -1.8,5.42 -3.98,7.02l-11.72 -29.28c-2.12,-5.35 -4.2,-10.1 -6.15,-14.85 -2.02,-4.93 -3.82,-10.49 -6.13,-14.87l-9 0c0.36,4.34 5.41,14.37 7.28,18.73 2.75,6.43 5.04,12.08 7.75,18.24l13.46 31.54c1.08,2.27 0.55,3.49 3.51,3.49zm45.99 -421.96l0 84.99 16 0 0 -87.99 -13 0c-2.3,0 -3,0.69 -3,3zm-500.95 0l0 84.99 16 0 0 -87.99 -13 0c-2.31,0 -3,0.69 -3,3zm91.99 367.96c0,28.46 42,14.04 42,35 0,12.83 -18.44,12.94 -29.7,7.7 -5.18,-2.41 -5.66,-4.25 -10.3,-6.7 -1.69,3.2 -2.24,3.37 -4,6 11.49,17.15 53,16.86 53,-7 0,-13.17 -6.14,-16.87 -19.11,-20.9 -8.56,-2.65 -22.89,-3.24 -22.89,-14.1 0,-11.79 12.22,-11 18,-11 8.14,0 12.28,5.48 18,7 1.69,-3.2 2.24,-3.37 4,-6 -9.5,-12.95 -49,-14.15 -49,10zm141.99 -8l11.33 24.67c1.78,3.78 2.65,4.96 3.67,9.33l-30 0 11.14 -24.86c1.25,-3.07 3.05,-5.69 3.86,-9.14zm-36 61l9 0c1.54,-2.91 2.51,-6.04 3.99,-9.01 1.81,-3.63 2.95,-5.45 4.01,-9.99l38 0 8 19 9.99 0 -8.14 -17.86c-2.36,-5.81 -5.55,-11.78 -8.14,-17.85l-16.71 -36.28 -8 0 -32 71.99zm374.97 -61c0.93,4.01 1.64,5.18 3.33,8.67l10.67 25.33 -30 0 11.57 -25.42c1.33,-3.2 2.03,-5.82 4.43,-8.58zm-37 61l9 0 8 -19 37.99 0 8 19 10 0c-1.54,-2.91 -2.51,-6.04 -3.98,-9.01l-28.01 -62.98 -9 0c-0.98,4.17 -1.84,5.71 -3.67,9.32l-20.32 44.68c-1.44,3.25 -2.48,5.88 -4.02,8.98 -1.48,2.97 -2.45,6.1 -3.99,9.01zm155.99 -8l-15 0 0 -55c14.41,0 26.45,-1.94 36.25,6.75 16.3,14.43 11.29,48.25 -21.25,48.25zm-23 8c20.04,0 38.39,2.94 51.77,-10.22 6.04,-5.93 10.04,-12.85 10.78,-24.13 0.66,-10.11 -3.76,-19.44 -9.29,-24.91 -15.56,-15.41 -26.24,-11.74 -53.26,-11.74l0 71zm-753.93 -7c-15.67,0 -27,-12.77 -27,-25l0 -8c0,-11.63 12.27,-24 24,-24l6 0c30.24,0 34.55,57 -3,57zm-37 -29c0,18.29 14.56,37 34,37l5 0c17.73,0 33.99,-16.26 33.99,-34 0,-13.21 -1.52,-20.41 -11.72,-30.27 -3.27,-3.16 -6.5,-5.2 -11.12,-6.88 -9.85,-3.58 -19.57,-3.58 -29.19,1.12 -12.09,5.9 -20.96,19.77 -20.96,33.03zm921.92 1c0,-14.69 10.31,-29 23.99,-29l5 0c33.68,0 35.96,57 -2,57 -8.64,0 -14.3,-3.76 -18.79,-8.21 -2.83,-2.81 -3.83,-4.4 -5.53,-8.46 -0.93,-2.21 -2.67,-8.8 -2.67,-11.33zm-9 -1c0,19.46 14.86,37 33.99,37l5 0c29.69,0 46.2,-40.36 23.28,-63.28 -22.92,-22.92 -62.27,-5.88 -62.27,26.28zm-1011.91 28l-14 0 0 -55c14.63,0 27.82,-2.07 37.55,8.45 14.2,15.34 8.1,46.55 -23.55,46.55zm-23 8l27 0c37.42,0 49.73,-50.97 16.37,-67.37 -11.25,-5.53 -28.36,-3.63 -43.37,-3.63l0 71zm1195.89 -35l-16 0 0 -28c21.21,0 39,-3.83 39,15 0,11.29 -14.01,13 -23,13zm-25 32c0,3.89 2.57,3 9,3l0 -27 21 0c0.78,2.9 7.12,10.83 9.29,13.71 3.5,4.67 6.58,8.62 9.71,13.29l11 0c-3.15,-4.7 -7.09,-9.46 -10.71,-14.29 -1.94,-2.57 -3.27,-4.37 -5.15,-6.85 -1.77,-2.36 -4.36,-4.96 -5.14,-7.86 20.67,-4.82 22.65,-26.37 11.28,-36.28 -2.94,-2.57 -9.13,-5.72 -14.28,-5.72l-36 0 0 68zm-837.92 -331.97l15 0c0.83,-3.55 2.91,-7.77 4.43,-11.57 1.72,-4.34 3.09,-7.21 4.72,-11.28 3.03,-7.53 6.07,-14.69 9.28,-22.72l13.99 -34c4.46,-10.5 7.09,-9.42 -11.42,-9.42 -3.19,0 -3.39,3.23 -4.59,6.41l-20.26 51.74c-1.45,4.03 -1.05,5.57 -4.15,7.84 -0.32,-3.8 -4.56,-13.4 -6,-17 -2.25,-5.61 -4.83,-11.68 -6.85,-17.15l-9.84 -25.15c-3.09,-8.09 -1.35,-6.69 -17.31,-6.69 -4.84,0 -1.79,3.01 0.72,9.28 1.74,4.36 2.98,6.91 4.72,11.28 3.25,8.17 6.06,14.64 9.27,22.72l9.32 22.68c1.73,3.92 8.69,19.61 8.97,23.03zm305.97 -67c0,15.15 2.35,20.96 20.11,26.89 20.72,6.93 27.89,3.79 27.89,18.11 0,8.42 -19.57,12.32 -36.96,0.96 -2.29,-1.49 -2.79,-2.45 -5.04,-3.96 -2.64,1.77 -8.03,9.07 -10,12 3.45,1.82 4.03,2.74 7.18,4.83 25.58,16.95 61.82,9.15 61.82,-17.83 0,-5.89 -3.25,-12.41 -6.26,-15.74 -11.9,-13.14 -42.74,-7.77 -42.74,-24.25 0,-12.33 20.31,-9.86 28.03,-6.04 3.43,1.7 6.36,4.2 9.97,5.03 2.55,-3.81 5.9,-8.04 8,-11.99 -33.87,-22.68 -62,-5.92 -62,11.99zm321.97 -1.99c0.53,6.36 12.51,27.09 13,32.99l-28 0 7.03 -16.97c1.17,-2.65 2.32,-5.37 3.63,-8.37 1.56,-3.58 1.53,-5.59 4.34,-7.65zm-45.99 67.99l16 0c3.37,-6.38 5.81,-14.37 9,-21l40.99 0c0.28,3.34 2.34,7.07 3.73,10.28 1.48,3.45 3.44,7.14 4.27,10.72l17 0 -36.21 -83.78c-2.24,-5.07 1.11,-4.21 -14.79,-4.21 -3.58,0 -4.87,6.35 -6.34,9.65 -1.78,4.03 -3.26,7.16 -4.94,11.06l-24.29 55.7c-1.85,4.43 -3.35,6.98 -4.42,11.58zm-913.92 -34c0,38.46 45.15,44.07 63.76,26.77 6.78,-6.29 11.23,-15.56 11.23,-25.77l0 -54.99c-19.83,0 -15.99,-3.83 -15.99,21 0,8.33 -0.02,16.66 0,24.99 0.03,13.82 -2.1,29 -21,29 -26.57,0 -22,-27.96 -22,-53 0,-25.91 3.86,-21.99 -16,-21.99l0 53.99zm419.96 34l66 0 0 -14 -50 0 0 -23 44 0 0 -14 -44 0 0 -21.99 49 0 0 -15 -65 0 0 87.99zm742.94 -84.99l0 84.99 65.99 0 0 -14 -50 0 0 -23 44 0 0 -14 -44 0 0 -21.99 47 0c4.18,0 3,-3.47 3,-12 0,-2.31 -0.7,-3 -3,-3l-59.99 0c-2.31,0 -3,0.69 -3,3zm-329.97 70.99l-11 0 0 -58.99c18.98,0 46.99,-1.75 46.99,29.99 0,22.07 -17.58,29 -35.99,29zm-27 -70.99l0 84.99 36.99 0c30.97,0 52.65,-32.85 38.69,-62.69 -13.42,-28.7 -44.53,-25.3 -72.68,-25.3 -2.31,0 -3,0.69 -3,3zm262.97 70.99l-10.99 0 0 -58.99c18.98,0 46.99,-1.75 46.99,29.99 0,21 -16.15,29 -36,29zm-26.99 -70.99l0 84.99c27.82,0 50.26,4.24 67.78,-13.21 23.57,-23.47 13.8,-74.78 -37.79,-74.78l-26.99 0c-2.31,0 -3,0.69 -3,3zm-471.96 39.99l-26 0 0 -27.99c20.12,0 39,-3.59 39,15.99 0,7.5 -8.25,12 -13,12zm-43 -39.99l0 84.99 17 0 0 -30c20.15,0 16.56,-3.4 28,14 3.43,5.21 8.13,10.57 11,16l19 0 -11.43 -16.58c-4.18,-5.78 -7.75,-10.71 -11.57,-16.42 13.73,-3.2 23.12,-15.92 19.91,-32.89 -5.21,-27.51 -42.77,-22.1 -68.91,-22.1 -2.3,0 -3,0.69 -3,3zm-406.96 0l0 84.99 16 0 0 -60c3.19,2.14 9.16,11.06 12.23,14.77l32.7 42.29c3.42,4.23 2.68,2.94 16.06,2.94l0 -84.99c0,-4.27 -3.83,-3 -13,-3 -4.55,0 -3.03,7.09 -3,11.99l0 47 -41 -51.98c-6.38,-8.4 -2.02,-7.01 -16.99,-7.01 -2.3,0 -3,0.69 -3,3zm698.94 309.97l46.99 0 0 -163.99 -46.99 0 0 163.99zm-142.99 0l125.99 0 0 -40 -78.99 0 0 -123.99 -47 0 0 163.99zm-354.97 -123.99l49 0 0 123.99 45.99 0 0 -123.99 49 0 0 -40 -143.99 0 0 40zm726.94 88.99c-3.38,-0.9 -1.7,-0.58 -4.46,-2.54l-24.51 -17.49c-2.61,-1.86 -1.76,-2.09 -5.03,-2.97 -5.21,3.49 -7.99,8.36 -14.38,12.62 -9.35,6.22 -13.72,6.38 -25.62,6.38 -11.69,0 -19.92,-6.94 -25.77,-13.22 -20.25,-21.72 -8.96,-72.77 25.77,-72.77l7 0c12.7,0 26.6,10.69 31,19l25.56 -19.44c4.25,-3.19 6.4,-5.75 9.44,-6.56 -1.17,-4.99 -2.27,-4.47 -5.24,-7.77 -4.51,-5.02 -6.08,-7.61 -13.34,-12.65 -8.83,-6.13 -15.86,-9.48 -26.61,-12.39 -29.84,-8.09 -64.98,0.38 -85.07,20.55 -5,5.02 -9.32,9.61 -13.06,15.93 -28.23,47.83 -9.18,109.73 44.18,127.46 8.25,2.74 15,3.3 24.43,4.6 12.35,1.7 34.83,-3.86 46.39,-10.06 10.65,-5.73 19.22,-14.2 26.68,-23.32 2.25,-2.75 2.29,-1.21 2.64,-5.36zm-1057.91 -46.99c0,18.55 6.99,38.86 17.4,52.59 1.5,1.97 2.3,2.48 3.74,4.26 6.6,8.18 2.72,3.35 9.08,8.92 24.54,21.5 58.31,24.3 89.41,13.86 8.97,-3.01 15.2,-7.78 21.94,-13.06 3.09,-2.41 6.54,-5.97 9.18,-8.82 1.84,-1.98 2.31,-2.9 4.04,-4.96 2.24,-2.67 2.26,-1.79 3.2,-5.8 -4.73,-1.26 -27.58,-19.6 -34,-23 -12.6,8.44 -12.03,19 -40,19 -30.39,0 -47.94,-43.14 -26.72,-71.72 15.69,-21.15 48.81,-19.04 64.72,4.73 5.95,-3.98 11.35,-8.7 16.99,-13.01 3.07,-2.35 15.34,-12.28 18.01,-12.99 -3.26,-12.2 -28.5,-28.28 -45.18,-32.82 -31.93,-8.68 -66.11,1.54 -86.06,21.57 -8.52,8.55 -12.21,14.05 -17.77,25.23 -4.13,8.34 -7.98,23.56 -7.98,36.02zm254.98 -27c0.95,4.08 2.54,7.37 4,11l8.42 21.57c1.58,3.92 2.95,8.03 4.58,11.42l-36 0 13.57 -33.42c1.63,-4.08 2.56,-8.47 5.43,-10.57zm-91.99 108.99l47.99 0c1.73,-3.59 10.73,-25.78 11,-29l63 0c4.73,8.95 7.59,19.82 11.99,29l49 0c-0.43,-5.14 -30.31,-72.87 -34.84,-84.15 -5.66,-14.07 -11.93,-27.17 -17.59,-41.41l-13.28 -31.71c-0.8,-1.88 -1.44,-3.56 -2.08,-4.92 -0.97,-2.07 -1.24,-3.8 -4.2,-3.8l-39 0c-3.81,0 -7.78,12.93 -10.34,18.66l-26.68 63.31c-2.95,6.68 -5.5,13.35 -8.63,20.37 -2.43,5.44 -26.04,60.01 -26.34,63.65zm990.91 -109.99l2.31 4.69c0.87,2.14 1.39,3.57 2.26,5.73l13.43 34.57 -35 0c0.34,-4.12 6.51,-17.76 8.43,-22.57 2.72,-6.82 7,-15.71 8.57,-22.42zm-90.99 109.99l47.99 0c4.58,-8.66 7.42,-20.34 12,-29l62.99 0c0.36,4.29 3.75,10.32 5.44,14.57 1.75,4.39 4.61,10.33 5.56,14.43l50 0 -66.65 -157.33c-5.32,-12.17 -0.59,-8.66 -45.34,-8.66 -3.73,0 -7.81,13.2 -10.13,18.87 -2.8,6.83 -6.13,13.79 -9.02,20.98l-17.82 42.17c-6.05,13.8 -11.5,27.32 -17.46,41.54l-13.42 31.57c-1.62,3.91 -3.14,6.54 -4.14,10.86zm-530.96 -81.99c0,-58.14 83,-58.92 83,1 0,36.7 -41.82,58.3 -70.76,29.75 -7.21,-7.11 -12.24,-19.74 -12.24,-30.75zm-46.99 -4c0,29.3 7,46.41 26.73,66.26 24.25,24.38 65.35,29.03 96.27,16.74 14.19,-5.63 16.24,-8.48 26.56,-16.43 13.93,-10.72 27.42,-38.54 27.42,-58.57 0,-29.42 -6.82,-46.24 -26.73,-66.26 -14.5,-14.58 -39.7,-23.74 -61.26,-23.74 -26.67,0 -46.93,10.92 -61.7,23.3 -15.15,12.69 -27.29,38 -27.29,58.7zm-823.93 286.97l13 0 -1 16c0,3.66 4,2.99 4,9 0,13.91 -19,11.06 -19,1 0,-9.95 4,-0.18 4,-17 0,-5.01 -0.87,-4.47 -1,-9zm133.99 19c0,8.65 -10.96,11.56 -15.76,6.76 -7.59,-7.62 0.76,-13.06 0.76,-15.76l0 -10 12 0c-4.31,8.99 3,13.68 3,19zm0 -86.99l10 0 0 45.99 -10 0 0 -45.99zm-141.99 0l10 0 0 45.99 -10 0 0 -45.99zm66 45.99l-11 0c2.79,-5.81 4.92,-15.98 7.11,-22.88 1.19,-3.71 2.22,-7.03 3.53,-11.48 1.21,-4.11 3.01,-7.43 3.36,-11.63l13.99 0c3.45,14.8 11.09,33.49 14,45.99l-11 0c-5.53,-11.54 2.06,-12 -13.99,-12 -4.63,0 -4.15,8.14 -6,12zm113.99 -29c11.7,-0.26 8.72,-2.92 13.99,-8.99 0.55,2.32 2.01,6.12 3.65,7.35l2.83 1.17c2.46,0.59 2.86,0.47 5.52,0.47 -6.17,9.22 -6.83,1.31 -4.82,14.97 -17.5,-7.23 -3.92,-1.99 -16.17,-0.97 1.4,-16.86 1.77,-4.75 -5,-14zm-362.97 0c8.61,-0.19 10.58,-1.93 12,-7.99l2 0c1.57,6.73 3.87,7.99 12,7.99 -7.16,10.69 -6.21,0.46 -5,15 -11.94,-6.31 -5.55,-3.43 -16,-1 0.1,-4.52 1,-3.97 1,-9 -3.27,-0.87 -4.33,-2.51 -6,-5zm163.98 7c1.34,1.82 -0.01,-0.08 1.47,1.54 4.22,4.63 7.05,14.6 7.53,20.46l-10 0c-6.06,-12.64 -0.57,-18 -13.99,-18l0 18 -10 0 0 -44.99c8.73,-0.73 32.99,-5.16 32.99,12 0,5.01 -3.96,9.92 -8,10.99zm116.99 -23.99l35 0 0 9 -13 0 0 36.99 -10 0 0 -36.99 -12 0 0 -9zm-78.99 0l35 0 0 9 -12 0 0 36.99 -10 0 0 -34c0,-4.26 -3.84,-2.99 -13,-2.99l0 -9zm-91.99 17.99l16 0 0 9 -16 0 0 11 18 0 0 8 -29 0 0 -45.99 28 0 0 9 -17 0 0 8.99zm-34.42 27.86l-12.58 0.14c-2.4,-10.33 -13.4,-38.89 -13.99,-45.99l10.99 0 7.2 25.8c0.23,0.94 0.55,2.59 0.97,4.03l1.83 4.16 10 -33.99 11 0 -15.42 45.85zm252.4 -92.85l26.4 17.6c1.78,1.18 2.46,1.55 4.19,2.81 1.82,1.32 2.97,2.34 4.41,3.59l-36 0c0,-8.85 1,-14.52 1,-24zm-118.99 14c28.41,0 46.7,-2.33 73.28,-6.72 4.79,-0.79 17.74,-2.85 20.71,-4.28l1 21 -94.99 0 0 -10zm-121.99 0c0,-5.55 1,-5.93 1,-11 31.31,7.29 64.87,11 97.99,11l0 10 -98.99 0 0 -10zm-25 -14l1 24 -30.99 0c1.79,-2.68 11.51,-9.91 14.71,-12.29 5.32,-3.95 10.02,-8.18 15.28,-11.71zm128.99 21l0 -6c7.99,0 6.34,0.55 13,-1l0 10c-9.16,0 -13,1.26 -13,-3zm130.99 -1l0 4 -12 0 -1 -22c4.62,-0.1 9.82,-2.03 14,-3 0,8.28 -1,12.53 -1,21zm-254.98 -22c13.33,6.4 15,-3.62 15,13 0,6.08 -1,7.29 -1,13l-13 0 -1 -26zm-111.99 -7c0,-13.64 4.95,-23.05 14.74,-31.25 8.88,-7.44 35.48,-16.51 47.26,-22.74 0,15.6 2,29.65 2,44.99 12.7,6.72 33.92,11.56 38.99,14l-27.22 21.77c-11.07,9.1 -11.74,6.23 -36.77,6.23 -11.46,0 -19.59,-4.66 -26.17,-9.83 -4.74,-3.72 -12.83,-15.13 -12.83,-23.17zm448.96 33c-40.34,0 -25.99,2.77 -66.81,-23.18 -0.64,-0.42 -1.71,-1.12 -2.39,-1.61l-1.15 -0.85c-1.75,-1.35 -0.73,-0.56 -1.64,-1.36 6.91,-1.61 15.64,-4.72 22.13,-6.86l15.51 -5.49c3.05,-0.82 3.89,-0.46 6.36,-1.65 1.85,-3.86 3.08,-30.02 2.97,-37.03 -0.05,-2.65 -0.79,-7.3 1.24,-8.26 0.73,-0.35 41.58,15.9 50.69,25.38 7.36,7.66 11.09,15.85 11.09,26.91 0,8.19 -7.55,19.81 -12.39,23.61 -6.22,4.89 -15.06,10.39 -25.61,10.39zm-190.98 -226.98c26.44,0 59.54,11.76 76.99,21 -2.52,10.83 -17.95,30.61 -25.99,35.99 -2.63,-1.75 -4.47,-3.67 -6.58,-6.42l-44.42 -50.57zm-109.99 18c-0.85,-1.77 -1.15,-3.24 -2,-5 3.04,-1.61 6.37,-2.75 9.86,-4.14 3.13,-1.26 6.5,-2.73 10.01,-3.99 26.38,-9.48 49.1,-13.87 79.12,-13.87 2.8,0 5.77,4.17 7,6 -12.34,-2.88 -45.5,2.25 -56.2,4.79 -8.58,2.03 -17.47,4.38 -24.92,7.08l-22.87 9.13zm-7 -36c1.64,-0.38 23.17,-10.91 35.12,-14.87 9.88,-3.27 31.06,-10.13 40.87,-10.13 1.01,3.78 1.93,2.91 4,6 -14.46,1.21 -51.68,12.28 -64.99,19 -14.89,7.51 -15,10.57 -15,0zm125.99 -98.99c5.6,2.69 14.58,2.73 30.01,12.98 26.78,17.8 46.98,49.23 46.98,82.01 -11.29,-5.98 -21.75,-9.73 -34.86,-14.13 -8.34,-2.8 -30.67,-8.87 -41.13,-8.87l-1 -71.99zm-43 69.99c-11.65,0.97 -3.27,3.59 -16.73,-10.26 -4.01,-4.13 -7.12,-7.78 -11.03,-11.97 -2.26,-2.44 -2.57,-3.55 -4.97,-6.03 -2.68,-2.75 -3.16,-3.58 -5.56,-6.44 -3.68,-4.4 -7.6,-7.66 -10.7,-12.29 13.4,-8.97 29.52,-22.3 49.99,-24 0,23.71 -1,46.29 -1,70.99zm10 -100.99c0,-8.21 2.08,-6.16 8,-15 3.17,1.52 4.56,1 9,1 6.85,10.23 6,4.91 6,19 0,9.8 -8.86,10.41 -0.68,22.68 2.01,3.01 1.18,-0.34 1.7,4.3l-0.08 72.07c-0.24,13.89 -0.05,3.51 48.85,17.15 5.75,1.61 36.2,12.4 36.2,16.79 0,9.7 -2.26,14.56 -4,22 -2.54,-1.34 -3.68,-2.36 -6.32,-3.68 -2.64,-1.32 -4.29,-1.68 -7.01,-2.99 -4.65,-2.24 -9.17,-3.92 -14.28,-5.72 -15.79,-5.55 -32.49,-8.61 -49.53,-10.47 -9.21,-1 -11.17,2.31 -16.66,-3.33 -2.14,-2.2 -2.64,-2.84 -4.61,-5.39l-14.58 -16.42c12.35,0 9.01,-4.49 9,-17l0.38 -64.61c1.02,-5.57 2.62,-5.76 2.62,-12.38 0,-3.61 -1.87,-5.16 -2.76,-8.24 -0.95,-3.29 -1.24,-5.91 -1.24,-9.76zm8 -20.99c0,-8.34 9,-8.34 9,0 0,5.1 -9,5.1 -9,0zm-4 -1.01c0,1.7 1.33,3.74 2,5 -1.97,0.17 -12.5,5.78 -22.77,1.77 -3.41,-1.33 -5.04,-5.17 -14.23,-0.77l0 -13.99c11.38,6.01 4.52,-2 28,-2 2.28,0 6.23,3.81 8,5 -0.33,3.97 -1,2.4 -1,4.99zm15 -5.99c5.72,-3.03 10.21,-6.12 19.83,-2.83 11.41,3.9 -2,3.17 14.17,1.82l0 14 -8 -1c-4.06,0 -2.65,4 -17,4 -2.46,0 -4.35,-3.02 -8,-4 0.46,-5.5 2.78,-4.86 -1,-11.99zm-1 -32c0,2.03 2.16,3.63 3.19,6.81 0.72,2.24 0.81,5.5 1.31,8.79 1.5,10.06 -3.78,7.98 -5.5,14.4 -6.32,-0.53 -2.97,-2.19 -9,0.99 -4.31,-6.43 -8.53,-9.15 -4.97,-22.97 3.03,-11.79 3.44,1.58 1.97,-16.02l15 0c-0.66,2.81 -2,5.08 -2,8zm-204.98 -23l19.15 20.85c15.37,19.25 51.55,56.26 64.26,72.72l38.58 43.42c-2.44,9.14 -30,23.44 -30,78.99 0,14.24 4.65,29.62 9.33,39.67 7.48,16.09 18.68,29.59 32.8,40.19 4.94,3.71 9.6,6.52 15.53,9.47 31.76,15.82 67.9,14.08 98.65,-3.02 4.97,-2.76 8.34,-5.41 12.68,-8.32 2.06,3.08 4.26,4.38 6.7,7.3l52.71 59.28c2.38,3.08 4.46,4.43 6.73,7.27l39.85 45.14c-14.35,6.89 -60.93,17.88 -76.08,20.92 -75.18,15.05 -157.72,11.28 -231.1,-8.71l-37.79 -12.21 -11.04 -205.94c-0.22,-19.84 -2.31,-42.85 -2.93,-64.07l-1.89 -26.11c-0.5,-4.48 0.18,-9.31 -0.19,-13.8 -0.58,-6.97 -1.58,-18 -1.96,-25.04 -0.23,-4.27 0.34,-8.61 -0.14,-12.86l-3.85 -65.14zm338.97 -20l-1 12c0,-1.99 -0.1,-4.12 -0.08,-6.07l1.08 -5.93zm-28 -6c0,-7.67 8,-7.63 8,-3l0 21 -8 0 0 -18zm-118.99 -2c0,-3.93 2.97,-4 7,-4 0.52,2.25 1,2.3 1,5l0 19 -8 0 0 -20zm-123.99 0c0,-2.34 1.66,-4 4,-4 2.34,0 4,1.66 4,4l0 20 -8 0 0 -20zm-16 -1c0,-3.07 1.39,-3 4,-3 4.16,0 2.87,3.67 3.33,7.67l0.67 16.33 -8 0 0 -21zm-3 12c1.43,2.25 1,6.47 1,9l-1 -9zm285.98 9l-7 0c0,-9.08 -1.83,-24 5,-24 4.61,0 3,5.62 3,17 0,3.41 -0.61,3.93 -1,7zm-114.99 -16l-0.31 0.7c0.06,-0.17 0.17,-0.48 0.31,-0.7zm-44 7c0,-13.85 -1.32,-15 4,-15 5.63,0 4,17.5 4,24l-7 0c-0.1,-4.52 -1,-3.97 -1,-9zm40 9l-7 0c0,-13.65 -2.28,-24 5,-24 5.95,0 2,15.6 2,24zm78.99 -17l1 -7c9.2,0 7,1.33 7,24l-7 0c0,-6.98 -1,-9.76 -1,-17zm-202.98 17l-8 0c2.93,-12.57 -2.27,-24 5,-24 6.99,0 3,10.64 3,24zm232.98 0l-3 0c0,-4.67 -0.02,-9.35 0.03,-14.02 0.07,-7.85 0.11,-7.29 -3.03,-11.98 5.74,0 7.64,-0.9 12,-1l-4.19 3.81 -1.81 23.19zm-24 -27c4.1,0.34 5.45,1 11,1 -4.91,4.66 -3,13.42 -3,26l-3 0c0,-8.89 0.83,-21.93 -5,-27zm-94.99 27l-3 0c0,-11.47 1.55,-19.21 -3,-26 5.55,0 6.65,-0.9 11,-1 -5.64,4.9 -5,18.24 -5,27zm-24 -27c4.1,0.96 4.7,1 10,1 -3.27,6.19 -2,16 -2,26l-3 0c0,-6.59 -0.91,-9.69 -1,-15 -0.19,-10.89 0.26,-5.64 -4,-12zm-99.99 18l0 9 -4 0 0 -22c0,-2.24 -0.79,-2.19 -2,-4 5.55,0 6.65,-0.9 11,-1 -0.18,0.16 -0.5,0.11 -0.58,0.42 -0.08,0.3 -0.47,0.33 -0.57,0.43 -3.81,3.31 -2.5,2.67 -2.98,6.02 -0.53,3.62 -0.87,6.55 -0.87,11.13zm-25 -18c4.1,0.34 5.45,1 11,1 -3.4,5.08 -2,16.24 -2,26l-3 0c0,-5.9 -1.05,-8.22 -0.97,-15.03 0.1,-7.92 -0.95,-8.42 -5.03,-11.97zm281.98 15c0,-3.36 0.48,-7.59 -0.63,-10.37 -1.33,-3.36 -3.87,-3.45 -6.37,-5.63 3.3,-0.27 6,-1.3 9,-2l-2 18zm-46 10l-1 0c0,-6.06 -0.36,-9.56 -0.85,-14.15l-1.15 -14.85c2.73,1.45 5.12,2.68 9,3 -9.85,8.57 -6,-1.56 -6,26zm-118.99 2l-1 0c0,-10.61 -2,-19.39 -2,-30 3.24,0.76 4.39,1.7 8,2 -2.99,4.09 -6.39,2.36 -6.07,10.94 0.23,5.9 1.07,4.93 1.07,17.06zm-124.99 -9c-0.13,-0.21 -0.27,-0.82 -0.3,-0.69l-1.69 -20.31c4.26,0.36 4.73,1.65 8.99,2 -2.65,2.31 -5.78,2.59 -6.77,6.23 -0.55,2.02 -0.23,10.12 -0.23,12.77zm170.99 -7c0,-9.12 -1.6,-8.69 -7.35,-11.65 -0.14,-0.07 -0.45,-0.21 -0.65,-0.35 5.21,-0.11 5.31,-1.61 10,-2 -0.79,3.4 -0.89,2.58 -0.98,7.02 -0.03,1.2 0.07,2.78 -0.08,3.92l-0.94 3.06zm-123.99 11l-1 0c0,-9.58 2.09,-16.92 -1.77,-20.18 -1.37,-1.17 -0.75,-0.54 -2.57,-1.47 -0.21,-0.1 -0.49,-0.22 -0.69,-0.32l-1.97 -1.03c5.21,-0.11 5.31,-1.61 10,-2 -1.38,5.93 -2,17.62 -2,25zm174.98 -42.99c0,-3.19 1.97,-6.45 3.69,-8.32 2.35,-2.58 4.77,-3.68 9.31,-3.68l65 0c13.93,0 16.31,25.99 -3,25.99l-59 0c-9.24,0 -16,-4.13 -16,-13.99zm-44.99 13.99l-60 0c-19.59,0 -16.9,-25.99 -3,-25.99l66 0c3.08,0 6.59,1.98 8.3,3.7 7.91,7.97 2.2,22.29 -11.3,22.29zm-123.99 0l-60 0c-19.59,0 -16.9,-25.99 -2.99,-25.99l65.99 0c3.08,0 6.6,1.98 8.3,3.7 7.91,7.97 2.2,22.29 -11.3,22.29zm226.98 -64.99l0.3 0.3c-0.02,-0.02 -0.4,-0.2 -0.3,-0.3zm-241.98 -1l123.99 0 -123.99 0zm244.98 -1l-244.98 1 244.98 -1zm-120.99 1l120.99 -1 -120.99 1zm-123.99 0l123.99 0 -123.99 0zm126.99 -2l-126.99 2 126.99 -2zm-123.99 0l123.99 0 -123.99 0zm241.98 1l-241.98 -1 241.98 1zm0 0c1.49,-2.15 0.14,-1.32 3,-2 -1.5,2.15 -0.15,1.32 -3,2zm-117.99 -1c1.49,-2.15 0.15,-1.32 3,-2 -1.5,2.15 -0.15,1.32 -3,2zm-123.99 0c1.5,-2.15 0.15,-1.32 3,-2 -1.49,2.15 -0.15,1.32 -3,2zm126.99 -2l6 -6c-0.88,3.3 -2.7,5.12 -6,6zm-123.99 0l6 -6c-0.88,3.3 -2.7,5.12 -6,6zm241.98 1l8 -8c-0.97,3.63 -4.37,7.03 -8,8zm-110.99 -9l-1 2 1 -2zm-123.99 0l-1 2 1 -2zm242.98 1l0.55 -2.15 -0.55 2.15zm-118.99 -1l0.55 -2.15 -0.55 2.15zm-123.99 0l0.55 -2.15 -0.55 2.15zm243.98 -3l0.3 0.3c-0.02,-0.02 -0.4,-0.2 -0.3,-0.3zm-21 19c0,5.4 4.28,7.56 7,9 6.56,-13.67 -0.13,-4.5 10.26,-12.74 6.74,-5.35 6.08,-5.53 8.71,-11.29 0.09,-0.2 0.24,-0.49 0.32,-0.67l0.71 -1.3c2.73,11.74 3.86,29.74 -0.38,40.62 -1.17,3.03 -4.2,8.38 -7.62,8.38l-53 0c-4.81,0 -12.28,-12.83 -8.52,-26.53 3.05,-11.13 9.29,-14.59 18.08,-19.91 27.87,-16.83 26.03,-4.58 43.17,-29.83 1.42,-2.09 0.27,-0.58 1.27,-1.73 0,21.89 -0.15,25.58 -13.15,35.85 -2.67,2.11 -6.85,5.81 -6.85,10.15zm-118.99 0c0,4.82 3.11,7.06 6,9 1.47,-2.19 0.97,-1.3 2.11,-3.89 5.12,-11.67 9.52,-2.56 17.84,-21.16 0.91,-2.03 0.28,-0.85 1.05,-1.95 0,5.59 2,13.96 2,27 0,7.5 -3.84,23 -10,23l-54 0c-5.11,0 -17.47,-23.5 0.23,-39.78 5.34,-4.91 12.48,-8.07 19.44,-11.55 3.75,-1.88 6.23,-3.38 10.2,-4.79 21.03,-7.49 18.75,-17.2 25.13,-21.88 0,19.64 -1.08,26.89 -13.29,35.71 -3.63,2.62 -6.71,4.42 -6.71,10.29zm-123.99 0c0,4.82 3.11,7.06 6,9 4.51,-6.73 1.08,-6.54 7.55,-10.45 1.26,-0.76 2.66,-1.62 3.62,-2.38 1.39,-1.1 5.03,-4.6 6.02,-5.98 2.17,-3 1.86,-5.38 3.81,-8.19 0,5.59 2,13.96 2,27 0,7.5 -3.84,23 -10,23l-54 0c-5.11,0 -17.47,-23.5 0.23,-39.78 4.75,-4.37 22.42,-13.77 29.65,-16.34 21.03,-7.49 18.74,-17.2 25.12,-21.88 0,19.64 -1.08,26.89 -13.29,35.71 -3.63,2.62 -6.71,4.42 -6.71,10.29zm-48.99 11c0,11.77 2.9,12.16 5,20 -8.13,4.3 -14.91,9.96 -13.34,20.3 1.42,9.28 9.05,15.69 19.33,15.69 0,9.78 2.01,18.15 2.01,27 -12.79,0 -38.86,-1.6 -50,1 -2.21,9.47 3.01,68.44 4,86.99 0.2,3.56 -0.2,7.45 -0.01,11.01 0.24,4.39 0.9,4.18 1.04,8.96 0.49,16.59 2.96,78.93 4.55,89.45 0.94,6.24 0.38,14.26 1.14,19.84 0.84,6.06 0.51,14.31 1.13,19.88l1.11 29.89c0.06,5.16 0.8,5.5 1.04,9.95 0.18,3.24 -0.13,6.78 -0.03,10.04 0.14,4.94 0.92,4.99 1.06,9.93 0.09,3.22 -0.24,6.79 0.02,9.98 0.33,3.97 0.95,4.84 0.95,10.05 -14,0 -27.09,-2.37 -40.01,-2.99 -8.14,-0.39 -34.17,-3.36 -39.98,-2.01 -1.52,6.49 7.63,55.66 9.29,65.7 1.13,6.89 2.09,15.35 3.7,22.29 4.36,1.02 13.73,2 19,2 -3.73,5.58 -8.98,9.62 -11.4,16.59 -3.06,8.79 -2.92,14.21 -2.6,23.41 0.32,9.06 1.56,16.68 2.02,25.98l2.41 26.59c2.93,20.24 -0.74,33.61 9.86,47.13 9.23,11.76 21.28,19.29 37.71,19.29l61.99 0c0,9.56 -4,10.1 -4,16 0,19.5 29,19.86 29,1 0,-8.96 -4,-4.4 -4,-17l100.99 0 1 12c0,4.26 -9.26,11.98 -0.11,21.11 9.68,9.65 25.11,2.88 25.11,-11.11 0,-4.68 -2.99,-6.11 -3.77,-9.31 -0.69,-2.86 0.77,-8.18 0.77,-12.69l95.99 0c0,11.46 -4,10.31 -4,17 0,18.78 29,18.12 29,0 0,-6.59 -4,-9.5 -4,-11 0,-3.77 0.66,-1.89 1,-6 15.77,0 60.46,1.43 72.76,-0.24 19.39,-2.63 35.5,-15.11 40,-33.99l3.21 -33.78c0.86,-17.34 6.84,-51.54 3.44,-67.4 -2.63,-12.26 -7.69,-15.02 -13.42,-23.58 24.27,0 17.86,0.44 24.14,-36.85 1.04,-6.19 9.82,-50.18 6.86,-53.14 -2.29,-2.29 -69.68,5 -78.99,5 0,-29.18 3.11,-59.38 3.96,-89.02 0.14,-4.79 0.8,-4.57 1.04,-8.96 0.17,-3.24 -0.13,-6.78 -0.04,-10.04 0.15,-4.94 0.92,-5 1.07,-9.93 0.09,-3.26 -0.21,-6.8 -0.04,-10.04 0.24,-4.45 0.99,-4.79 1.04,-9.96 0.22,-19.11 3.15,-40.28 2.98,-59.01 -0.12,-13.18 2.07,-26.7 1.96,-40.04l1.88 -29.12c0.4,-3.59 0.06,-7.28 0.1,-10.89 0.06,-4.84 0.68,-5.22 0.99,-9.01 0.29,-3.5 -0.08,-7.45 0.02,-10.98 0.24,-8.1 2.09,-10.14 0.03,-18.97 -11.06,-2.58 -40.91,-1 -53.99,-1 0,-9.03 2,-17.73 2,-27 24.06,0 24.35,-33.47 6,-34.99 0.36,-4.31 2.83,-7.14 4.04,-11.96 2.83,-11.3 1.9,-33.79 -2.39,-44.72 -1.37,-3.47 0.02,-2.05 -2.9,-3.01 -1.13,-0.37 -1.04,-0.12 -2.07,-0.21 -1.7,-0.15 -0.27,0.57 -1.68,-0.1 1.71,-3.45 2.79,-24.11 -3,-28 -3.86,1.03 -3.54,1.79 -4.89,5.11 -8.33,20.54 -23.11,21.08 -40.45,30.55 -9.22,5.03 -17.15,9.56 -21.27,19.73 -4.99,12.34 -3.81,22.02 2.61,31.61 -7.7,3.69 -13.99,7.48 -13.99,18 0,10.47 8.35,17.99 18.99,17.99 0,8.76 2,17.53 2,27l-61.99 0c0,-10.24 1.26,-18.06 2,-27 15.77,-0.35 24.37,-18.16 14.76,-29.75 -3.14,-3.79 -5.52,-4.21 -9.76,-6.24 8.69,-12.98 6.65,-33.93 3.75,-48.76 -0.91,-4.68 -0.19,-9.4 -5.4,-10.13l-2.35 -0.11c0.15,-7 1.8,-15.82 0.02,-23.02 -1,-4.06 -0.95,-4.03 -5.02,-4.98 -2.99,2.19 -3.87,7.26 -6.02,10.98 -0.84,1.45 -2.06,3.25 -3.26,4.74 -0.7,0.85 -1.17,1.39 -1.85,2.15 -0.2,0.22 -0.75,0.84 -0.95,1.05 -0.89,0.93 -0.07,0.18 -1.52,1.48 -11.69,10.47 -65.6,19.22 -52.8,59 1.39,4.3 2.51,4.24 3.4,7.6 -4.24,2.24 -7.09,3.08 -9.86,7.13 -8.6,12.57 -0.19,28.86 15.86,28.86 0,5.93 0.6,8.6 0.94,13.07 0.37,4.87 1.06,10.06 1.06,13.93l-66.99 0c0,-10.24 1.26,-18.06 2,-27 15.37,-0.34 24.58,-17.91 14.76,-29.75 -3.14,-3.79 -5.52,-4.21 -9.76,-6.24 8.69,-12.98 6.66,-33.93 3.76,-48.76 -0.92,-4.68 -0.2,-9.4 -5.41,-10.13 -0.17,-0.02 -0.49,-0.01 -0.66,-0.02 -1.72,-0.16 -0.26,0.59 -1.69,-0.09 0.16,-7 1.8,-15.82 0.02,-23.02 -1,-4.06 -0.95,-4.03 -5.02,-4.98 -3.1,2.27 -3.43,6.31 -5.66,10.34 -11.06,20.02 -33.94,17.88 -51.1,33.89 -3.17,2.96 -5.72,5.07 -7.56,9.44 -1.32,3.11 -3.67,9.66 -3.67,13.33z"/>
 </g>
</svg>
